<mxfile host="app.diagrams.net" agent="Mozilla/5.0 (Windows NT 10.0; Win64; x64) AppleWebKit/537.36 (KHTML, like Gecko) Chrome/133.0.0.0 Safari/537.36" version="26.0.16">
  <diagram name="Trang-1" id="fUhXv3ZiU_zFf_FvxtRv">
    <mxGraphModel dx="1290" dy="522" grid="1" gridSize="10" guides="1" tooltips="1" connect="1" arrows="1" fold="1" page="1" pageScale="1" pageWidth="850" pageHeight="1100" math="0" shadow="0">
      <root>
        <mxCell id="0" />
        <mxCell id="1" parent="0" />
        <mxCell id="tCdTEFP5Q40oBGa1VXHd-2" value="Order Received" style="ellipse;whiteSpace=wrap;html=1;" vertex="1" parent="1">
          <mxGeometry x="240" y="30" width="80" height="50" as="geometry" />
        </mxCell>
        <mxCell id="tCdTEFP5Q40oBGa1VXHd-3" value="Enter Order in the System" style="rounded=0;whiteSpace=wrap;html=1;" vertex="1" parent="1">
          <mxGeometry x="235" y="110" width="90" height="50" as="geometry" />
        </mxCell>
        <mxCell id="tCdTEFP5Q40oBGa1VXHd-29" style="edgeStyle=orthogonalEdgeStyle;rounded=0;orthogonalLoop=1;jettySize=auto;html=1;exitX=0.5;exitY=1;exitDx=0;exitDy=0;" edge="1" parent="1" source="tCdTEFP5Q40oBGa1VXHd-4" target="tCdTEFP5Q40oBGa1VXHd-5">
          <mxGeometry relative="1" as="geometry">
            <mxPoint x="280" y="280" as="targetPoint" />
          </mxGeometry>
        </mxCell>
        <mxCell id="tCdTEFP5Q40oBGa1VXHd-4" value="Check Credit" style="rounded=0;whiteSpace=wrap;html=1;" vertex="1" parent="1">
          <mxGeometry x="235" y="200" width="90" height="50" as="geometry" />
        </mxCell>
        <mxCell id="tCdTEFP5Q40oBGa1VXHd-30" value="" style="edgeStyle=orthogonalEdgeStyle;rounded=0;orthogonalLoop=1;jettySize=auto;html=1;" edge="1" parent="1" source="tCdTEFP5Q40oBGa1VXHd-5" target="tCdTEFP5Q40oBGa1VXHd-6">
          <mxGeometry relative="1" as="geometry" />
        </mxCell>
        <mxCell id="tCdTEFP5Q40oBGa1VXHd-31" value="" style="edgeStyle=orthogonalEdgeStyle;rounded=0;orthogonalLoop=1;jettySize=auto;html=1;" edge="1" parent="1" source="tCdTEFP5Q40oBGa1VXHd-5" target="tCdTEFP5Q40oBGa1VXHd-7">
          <mxGeometry relative="1" as="geometry" />
        </mxCell>
        <mxCell id="tCdTEFP5Q40oBGa1VXHd-5" value="Is Credit good?" style="rhombus;whiteSpace=wrap;html=1;" vertex="1" parent="1">
          <mxGeometry x="240" y="290" width="80" height="75" as="geometry" />
        </mxCell>
        <mxCell id="tCdTEFP5Q40oBGa1VXHd-6" value="Refuse Order" style="ellipse;whiteSpace=wrap;html=1;" vertex="1" parent="1">
          <mxGeometry x="360" y="305" width="72.5" height="45" as="geometry" />
        </mxCell>
        <mxCell id="tCdTEFP5Q40oBGa1VXHd-32" value="" style="edgeStyle=orthogonalEdgeStyle;rounded=0;orthogonalLoop=1;jettySize=auto;html=1;" edge="1" parent="1" source="tCdTEFP5Q40oBGa1VXHd-7" target="tCdTEFP5Q40oBGa1VXHd-8">
          <mxGeometry relative="1" as="geometry" />
        </mxCell>
        <mxCell id="tCdTEFP5Q40oBGa1VXHd-7" value="Check Inventory" style="rounded=0;whiteSpace=wrap;html=1;" vertex="1" parent="1">
          <mxGeometry x="240" y="400" width="80" height="40" as="geometry" />
        </mxCell>
        <mxCell id="tCdTEFP5Q40oBGa1VXHd-33" value="" style="edgeStyle=orthogonalEdgeStyle;rounded=0;orthogonalLoop=1;jettySize=auto;html=1;" edge="1" parent="1" source="tCdTEFP5Q40oBGa1VXHd-8" target="tCdTEFP5Q40oBGa1VXHd-10">
          <mxGeometry relative="1" as="geometry" />
        </mxCell>
        <mxCell id="tCdTEFP5Q40oBGa1VXHd-58" style="edgeStyle=orthogonalEdgeStyle;rounded=0;orthogonalLoop=1;jettySize=auto;html=1;exitX=0.5;exitY=1;exitDx=0;exitDy=0;entryX=0.5;entryY=0;entryDx=0;entryDy=0;" edge="1" parent="1" source="tCdTEFP5Q40oBGa1VXHd-8" target="tCdTEFP5Q40oBGa1VXHd-16">
          <mxGeometry relative="1" as="geometry" />
        </mxCell>
        <mxCell id="tCdTEFP5Q40oBGa1VXHd-8" value="Product are enough?" style="rhombus;whiteSpace=wrap;html=1;" vertex="1" parent="1">
          <mxGeometry x="235" y="480" width="90" height="90" as="geometry" />
        </mxCell>
        <mxCell id="tCdTEFP5Q40oBGa1VXHd-38" value="" style="edgeStyle=orthogonalEdgeStyle;rounded=0;orthogonalLoop=1;jettySize=auto;html=1;" edge="1" parent="1" source="tCdTEFP5Q40oBGa1VXHd-10" target="tCdTEFP5Q40oBGa1VXHd-11">
          <mxGeometry relative="1" as="geometry" />
        </mxCell>
        <mxCell id="tCdTEFP5Q40oBGa1VXHd-10" value="Check Material needed in the warehouses" style="rounded=0;whiteSpace=wrap;html=1;" vertex="1" parent="1">
          <mxGeometry x="360" y="502.5" width="105" height="45" as="geometry" />
        </mxCell>
        <mxCell id="tCdTEFP5Q40oBGa1VXHd-40" value="" style="edgeStyle=orthogonalEdgeStyle;rounded=0;orthogonalLoop=1;jettySize=auto;html=1;" edge="1" parent="1" source="tCdTEFP5Q40oBGa1VXHd-11" target="tCdTEFP5Q40oBGa1VXHd-12">
          <mxGeometry relative="1" as="geometry" />
        </mxCell>
        <mxCell id="tCdTEFP5Q40oBGa1VXHd-42" value="" style="edgeStyle=orthogonalEdgeStyle;rounded=0;orthogonalLoop=1;jettySize=auto;html=1;" edge="1" parent="1" source="tCdTEFP5Q40oBGa1VXHd-11" target="tCdTEFP5Q40oBGa1VXHd-14">
          <mxGeometry relative="1" as="geometry" />
        </mxCell>
        <mxCell id="tCdTEFP5Q40oBGa1VXHd-11" value="Enough Materials?" style="rhombus;whiteSpace=wrap;html=1;" vertex="1" parent="1">
          <mxGeometry x="371.25" y="580" width="82.5" height="90" as="geometry" />
        </mxCell>
        <mxCell id="tCdTEFP5Q40oBGa1VXHd-44" value="" style="edgeStyle=orthogonalEdgeStyle;rounded=0;orthogonalLoop=1;jettySize=auto;html=1;" edge="1" parent="1" source="tCdTEFP5Q40oBGa1VXHd-12" target="tCdTEFP5Q40oBGa1VXHd-13">
          <mxGeometry relative="1" as="geometry" />
        </mxCell>
        <mxCell id="tCdTEFP5Q40oBGa1VXHd-12" value="Order Materials" style="rounded=0;whiteSpace=wrap;html=1;" vertex="1" parent="1">
          <mxGeometry x="500" y="595" width="120" height="60" as="geometry" />
        </mxCell>
        <mxCell id="tCdTEFP5Q40oBGa1VXHd-47" value="" style="edgeStyle=orthogonalEdgeStyle;rounded=0;orthogonalLoop=1;jettySize=auto;html=1;" edge="1" parent="1" source="tCdTEFP5Q40oBGa1VXHd-13" target="tCdTEFP5Q40oBGa1VXHd-18">
          <mxGeometry relative="1" as="geometry" />
        </mxCell>
        <mxCell id="tCdTEFP5Q40oBGa1VXHd-13" value="Waiting..." style="shape=or;whiteSpace=wrap;html=1;" vertex="1" parent="1">
          <mxGeometry x="530" y="715" width="60" height="35" as="geometry" />
        </mxCell>
        <mxCell id="tCdTEFP5Q40oBGa1VXHd-46" value="" style="edgeStyle=orthogonalEdgeStyle;rounded=0;orthogonalLoop=1;jettySize=auto;html=1;" edge="1" parent="1" source="tCdTEFP5Q40oBGa1VXHd-14" target="tCdTEFP5Q40oBGa1VXHd-15">
          <mxGeometry relative="1" as="geometry" />
        </mxCell>
        <mxCell id="tCdTEFP5Q40oBGa1VXHd-14" value="Schedule Production" style="rounded=0;whiteSpace=wrap;html=1;" vertex="1" parent="1">
          <mxGeometry x="369.38" y="710" width="86.25" height="45" as="geometry" />
        </mxCell>
        <mxCell id="tCdTEFP5Q40oBGa1VXHd-57" style="edgeStyle=orthogonalEdgeStyle;rounded=0;orthogonalLoop=1;jettySize=auto;html=1;entryX=0.5;entryY=0;entryDx=0;entryDy=0;" edge="1" parent="1" source="tCdTEFP5Q40oBGa1VXHd-15" target="tCdTEFP5Q40oBGa1VXHd-21">
          <mxGeometry relative="1" as="geometry" />
        </mxCell>
        <mxCell id="tCdTEFP5Q40oBGa1VXHd-15" value="Waiting..." style="shape=or;whiteSpace=wrap;html=1;" vertex="1" parent="1">
          <mxGeometry x="385.01" y="790" width="54.99" height="40" as="geometry" />
        </mxCell>
        <mxCell id="tCdTEFP5Q40oBGa1VXHd-59" value="" style="edgeStyle=orthogonalEdgeStyle;rounded=0;orthogonalLoop=1;jettySize=auto;html=1;" edge="1" parent="1" source="tCdTEFP5Q40oBGa1VXHd-16" target="tCdTEFP5Q40oBGa1VXHd-17">
          <mxGeometry relative="1" as="geometry" />
        </mxCell>
        <mxCell id="tCdTEFP5Q40oBGa1VXHd-16" value="Schedule Shipment" style="rounded=0;whiteSpace=wrap;html=1;" vertex="1" parent="1">
          <mxGeometry x="240" y="790" width="80" height="40" as="geometry" />
        </mxCell>
        <mxCell id="tCdTEFP5Q40oBGa1VXHd-63" style="edgeStyle=orthogonalEdgeStyle;rounded=0;orthogonalLoop=1;jettySize=auto;html=1;exitX=0.5;exitY=1;exitDx=0;exitDy=0;entryX=0.5;entryY=0;entryDx=0;entryDy=0;" edge="1" parent="1" source="tCdTEFP5Q40oBGa1VXHd-17" target="tCdTEFP5Q40oBGa1VXHd-24">
          <mxGeometry relative="1" as="geometry" />
        </mxCell>
        <mxCell id="tCdTEFP5Q40oBGa1VXHd-17" value="Confirm Delivery Date with the Customer" style="rounded=0;whiteSpace=wrap;html=1;" vertex="1" parent="1">
          <mxGeometry x="233.13" y="880" width="93.75" height="50" as="geometry" />
        </mxCell>
        <mxCell id="tCdTEFP5Q40oBGa1VXHd-48" value="" style="edgeStyle=orthogonalEdgeStyle;rounded=0;orthogonalLoop=1;jettySize=auto;html=1;" edge="1" parent="1" source="tCdTEFP5Q40oBGa1VXHd-18" target="tCdTEFP5Q40oBGa1VXHd-19">
          <mxGeometry relative="1" as="geometry" />
        </mxCell>
        <mxCell id="tCdTEFP5Q40oBGa1VXHd-18" value="Receive Materials" style="rounded=0;whiteSpace=wrap;html=1;" vertex="1" parent="1">
          <mxGeometry x="520" y="790" width="80" height="40" as="geometry" />
        </mxCell>
        <mxCell id="tCdTEFP5Q40oBGa1VXHd-50" value="" style="edgeStyle=orthogonalEdgeStyle;rounded=0;orthogonalLoop=1;jettySize=auto;html=1;" edge="1" parent="1" source="tCdTEFP5Q40oBGa1VXHd-19" target="tCdTEFP5Q40oBGa1VXHd-20">
          <mxGeometry relative="1" as="geometry" />
        </mxCell>
        <mxCell id="tCdTEFP5Q40oBGa1VXHd-19" value="Inspect Materials" style="rounded=0;whiteSpace=wrap;html=1;" vertex="1" parent="1">
          <mxGeometry x="520" y="870" width="80" height="40" as="geometry" />
        </mxCell>
        <mxCell id="tCdTEFP5Q40oBGa1VXHd-53" style="edgeStyle=orthogonalEdgeStyle;rounded=0;orthogonalLoop=1;jettySize=auto;html=1;exitX=1;exitY=0.5;exitDx=0;exitDy=0;entryX=1;entryY=0.5;entryDx=0;entryDy=0;" edge="1" parent="1" source="tCdTEFP5Q40oBGa1VXHd-20" target="tCdTEFP5Q40oBGa1VXHd-12">
          <mxGeometry relative="1" as="geometry">
            <Array as="points">
              <mxPoint x="650" y="990" />
              <mxPoint x="650" y="625" />
            </Array>
          </mxGeometry>
        </mxCell>
        <mxCell id="tCdTEFP5Q40oBGa1VXHd-54" style="edgeStyle=orthogonalEdgeStyle;rounded=0;orthogonalLoop=1;jettySize=auto;html=1;exitX=0;exitY=0.5;exitDx=0;exitDy=0;" edge="1" parent="1" source="tCdTEFP5Q40oBGa1VXHd-20">
          <mxGeometry relative="1" as="geometry">
            <mxPoint x="410" y="990" as="targetPoint" />
          </mxGeometry>
        </mxCell>
        <mxCell id="tCdTEFP5Q40oBGa1VXHd-20" value="Are Materials good?" style="rhombus;whiteSpace=wrap;html=1;" vertex="1" parent="1">
          <mxGeometry x="525" y="950" width="70" height="80" as="geometry" />
        </mxCell>
        <mxCell id="tCdTEFP5Q40oBGa1VXHd-60" value="" style="edgeStyle=orthogonalEdgeStyle;rounded=0;orthogonalLoop=1;jettySize=auto;html=1;" edge="1" parent="1" source="tCdTEFP5Q40oBGa1VXHd-21" target="tCdTEFP5Q40oBGa1VXHd-22">
          <mxGeometry relative="1" as="geometry" />
        </mxCell>
        <mxCell id="tCdTEFP5Q40oBGa1VXHd-21" value="Make Products" style="rounded=0;whiteSpace=wrap;html=1;" vertex="1" parent="1">
          <mxGeometry x="366.25" y="1030" width="92.5" height="50" as="geometry" />
        </mxCell>
        <mxCell id="tCdTEFP5Q40oBGa1VXHd-62" value="" style="edgeStyle=orthogonalEdgeStyle;rounded=0;orthogonalLoop=1;jettySize=auto;html=1;" edge="1" parent="1" source="tCdTEFP5Q40oBGa1VXHd-22" target="tCdTEFP5Q40oBGa1VXHd-23">
          <mxGeometry relative="1" as="geometry" />
        </mxCell>
        <mxCell id="tCdTEFP5Q40oBGa1VXHd-22" value="Inspect Products" style="rounded=0;whiteSpace=wrap;html=1;" vertex="1" parent="1">
          <mxGeometry x="365" y="1120" width="95" height="50" as="geometry" />
        </mxCell>
        <mxCell id="tCdTEFP5Q40oBGa1VXHd-67" style="edgeStyle=orthogonalEdgeStyle;rounded=0;orthogonalLoop=1;jettySize=auto;html=1;exitX=0.5;exitY=1;exitDx=0;exitDy=0;entryX=1;entryY=0.5;entryDx=0;entryDy=0;" edge="1" parent="1" source="tCdTEFP5Q40oBGa1VXHd-23" target="tCdTEFP5Q40oBGa1VXHd-24">
          <mxGeometry relative="1" as="geometry" />
        </mxCell>
        <mxCell id="tCdTEFP5Q40oBGa1VXHd-68" style="edgeStyle=orthogonalEdgeStyle;rounded=0;orthogonalLoop=1;jettySize=auto;html=1;exitX=0;exitY=0.5;exitDx=0;exitDy=0;entryX=0;entryY=0.5;entryDx=0;entryDy=0;" edge="1" parent="1" source="tCdTEFP5Q40oBGa1VXHd-23" target="tCdTEFP5Q40oBGa1VXHd-21">
          <mxGeometry relative="1" as="geometry">
            <mxPoint x="320" y="1050" as="targetPoint" />
          </mxGeometry>
        </mxCell>
        <mxCell id="tCdTEFP5Q40oBGa1VXHd-23" value="Are Products good?" style="rhombus;whiteSpace=wrap;html=1;" vertex="1" parent="1">
          <mxGeometry x="381.26" y="1220" width="62.49" height="100" as="geometry" />
        </mxCell>
        <mxCell id="tCdTEFP5Q40oBGa1VXHd-73" value="" style="edgeStyle=orthogonalEdgeStyle;rounded=0;orthogonalLoop=1;jettySize=auto;html=1;" edge="1" parent="1" source="tCdTEFP5Q40oBGa1VXHd-24" target="tCdTEFP5Q40oBGa1VXHd-25">
          <mxGeometry relative="1" as="geometry" />
        </mxCell>
        <mxCell id="tCdTEFP5Q40oBGa1VXHd-24" value="Ship products" style="rounded=0;whiteSpace=wrap;html=1;" vertex="1" parent="1">
          <mxGeometry x="235" y="1340" width="89.99" height="40" as="geometry" />
        </mxCell>
        <mxCell id="tCdTEFP5Q40oBGa1VXHd-74" value="" style="edgeStyle=orthogonalEdgeStyle;rounded=0;orthogonalLoop=1;jettySize=auto;html=1;" edge="1" parent="1" source="tCdTEFP5Q40oBGa1VXHd-25" target="tCdTEFP5Q40oBGa1VXHd-26">
          <mxGeometry relative="1" as="geometry" />
        </mxCell>
        <mxCell id="tCdTEFP5Q40oBGa1VXHd-25" value="Prepare the Bill" style="rounded=0;whiteSpace=wrap;html=1;" vertex="1" parent="1">
          <mxGeometry x="230.63" y="1420" width="99.99" height="50" as="geometry" />
        </mxCell>
        <mxCell id="tCdTEFP5Q40oBGa1VXHd-26" value="Mail the Bill" style="ellipse;whiteSpace=wrap;html=1;" vertex="1" parent="1">
          <mxGeometry x="232.5" y="1510" width="94.99" height="50" as="geometry" />
        </mxCell>
        <mxCell id="tCdTEFP5Q40oBGa1VXHd-27" value="" style="endArrow=classic;html=1;rounded=0;exitX=0.5;exitY=1;exitDx=0;exitDy=0;entryX=0.5;entryY=0;entryDx=0;entryDy=0;" edge="1" parent="1" source="tCdTEFP5Q40oBGa1VXHd-2" target="tCdTEFP5Q40oBGa1VXHd-3">
          <mxGeometry width="50" height="50" relative="1" as="geometry">
            <mxPoint x="400" y="170" as="sourcePoint" />
            <mxPoint x="450" y="120" as="targetPoint" />
          </mxGeometry>
        </mxCell>
        <mxCell id="tCdTEFP5Q40oBGa1VXHd-28" value="" style="endArrow=classic;html=1;rounded=0;exitX=0.5;exitY=1;exitDx=0;exitDy=0;entryX=0.5;entryY=0;entryDx=0;entryDy=0;" edge="1" parent="1" target="tCdTEFP5Q40oBGa1VXHd-4">
          <mxGeometry width="50" height="50" relative="1" as="geometry">
            <mxPoint x="279.5" y="160" as="sourcePoint" />
            <mxPoint x="279.5" y="190" as="targetPoint" />
          </mxGeometry>
        </mxCell>
        <mxCell id="tCdTEFP5Q40oBGa1VXHd-34" value="No" style="text;html=1;align=center;verticalAlign=middle;resizable=0;points=[];autosize=1;strokeColor=none;fillColor=none;" vertex="1" parent="1">
          <mxGeometry x="317.5" y="298" width="40" height="30" as="geometry" />
        </mxCell>
        <mxCell id="tCdTEFP5Q40oBGa1VXHd-35" value="Yes" style="text;html=1;align=center;verticalAlign=middle;resizable=0;points=[];autosize=1;strokeColor=none;fillColor=none;" vertex="1" parent="1">
          <mxGeometry x="277.5" y="365" width="40" height="30" as="geometry" />
        </mxCell>
        <mxCell id="tCdTEFP5Q40oBGa1VXHd-36" value="No" style="text;html=1;align=center;verticalAlign=middle;resizable=0;points=[];autosize=1;strokeColor=none;fillColor=none;" vertex="1" parent="1">
          <mxGeometry x="317.5" y="490" width="40" height="30" as="geometry" />
        </mxCell>
        <mxCell id="tCdTEFP5Q40oBGa1VXHd-37" value="Yes" style="text;html=1;align=center;verticalAlign=middle;resizable=0;points=[];autosize=1;strokeColor=none;fillColor=none;" vertex="1" parent="1">
          <mxGeometry x="280" y="570" width="40" height="30" as="geometry" />
        </mxCell>
        <mxCell id="tCdTEFP5Q40oBGa1VXHd-41" value="No" style="text;html=1;align=center;verticalAlign=middle;resizable=0;points=[];autosize=1;strokeColor=none;fillColor=none;" vertex="1" parent="1">
          <mxGeometry x="450" y="595" width="40" height="30" as="geometry" />
        </mxCell>
        <mxCell id="tCdTEFP5Q40oBGa1VXHd-45" value="Yes" style="text;html=1;align=center;verticalAlign=middle;resizable=0;points=[];autosize=1;strokeColor=none;fillColor=none;" vertex="1" parent="1">
          <mxGeometry x="367.5" y="670" width="40" height="30" as="geometry" />
        </mxCell>
        <mxCell id="tCdTEFP5Q40oBGa1VXHd-51" value="Yes" style="text;html=1;align=center;verticalAlign=middle;resizable=0;points=[];autosize=1;strokeColor=none;fillColor=none;" vertex="1" parent="1">
          <mxGeometry x="480" y="960" width="40" height="30" as="geometry" />
        </mxCell>
        <mxCell id="tCdTEFP5Q40oBGa1VXHd-52" value="No" style="text;html=1;align=center;verticalAlign=middle;resizable=0;points=[];autosize=1;strokeColor=none;fillColor=none;" vertex="1" parent="1">
          <mxGeometry x="595" y="960" width="40" height="30" as="geometry" />
        </mxCell>
        <mxCell id="tCdTEFP5Q40oBGa1VXHd-69" value="No" style="text;html=1;align=center;verticalAlign=middle;resizable=0;points=[];autosize=1;strokeColor=none;fillColor=none;" vertex="1" parent="1">
          <mxGeometry x="345.01" y="1240" width="40" height="30" as="geometry" />
        </mxCell>
        <mxCell id="tCdTEFP5Q40oBGa1VXHd-70" value="Yes" style="text;html=1;align=center;verticalAlign=middle;resizable=0;points=[];autosize=1;strokeColor=none;fillColor=none;" vertex="1" parent="1">
          <mxGeometry x="371.25" y="1330" width="40" height="30" as="geometry" />
        </mxCell>
        <mxCell id="tCdTEFP5Q40oBGa1VXHd-75" value="Vendor" style="ellipse;whiteSpace=wrap;html=1;aspect=fixed;" vertex="1" parent="1">
          <mxGeometry x="700" y="700" width="80" height="80" as="geometry" />
        </mxCell>
        <mxCell id="tCdTEFP5Q40oBGa1VXHd-78" value="" style="endArrow=none;dashed=1;html=1;rounded=0;entryX=1;entryY=1;entryDx=0;entryDy=0;exitX=0;exitY=0;exitDx=0;exitDy=0;" edge="1" parent="1" source="tCdTEFP5Q40oBGa1VXHd-75" target="tCdTEFP5Q40oBGa1VXHd-12">
          <mxGeometry width="50" height="50" relative="1" as="geometry">
            <mxPoint x="400" y="810" as="sourcePoint" />
            <mxPoint x="450" y="760" as="targetPoint" />
          </mxGeometry>
        </mxCell>
        <mxCell id="tCdTEFP5Q40oBGa1VXHd-79" value="" style="endArrow=none;dashed=1;html=1;rounded=0;entryX=0;entryY=1;entryDx=0;entryDy=0;exitX=1;exitY=0.5;exitDx=0;exitDy=0;" edge="1" parent="1" source="tCdTEFP5Q40oBGa1VXHd-18" target="tCdTEFP5Q40oBGa1VXHd-75">
          <mxGeometry width="50" height="50" relative="1" as="geometry">
            <mxPoint x="650" y="820" as="sourcePoint" />
            <mxPoint x="700" y="770" as="targetPoint" />
          </mxGeometry>
        </mxCell>
        <mxCell id="tCdTEFP5Q40oBGa1VXHd-80" value="The Process of Fulfilling An Order" style="text;html=1;align=center;verticalAlign=middle;resizable=0;points=[];autosize=1;strokeColor=none;fillColor=none;fontStyle=1" vertex="1" parent="1">
          <mxGeometry x="458.75" y="160" width="200" height="30" as="geometry" />
        </mxCell>
      </root>
    </mxGraphModel>
  </diagram>
</mxfile>
